<svg width="8" height="10" viewBox="0 0 8 10" fill="none" xmlns="http://www.w3.org/2000/svg">
<rect x="-57.5" y="-14.5" width="487" height="39" rx="2.5" stroke="#DFE3E6"/>
<path d="M-40.51 6.892C-40.51 5.128 -41.77 3.854 -43.66 3.854C-44.472 3.854 -45.144 4.064 -45.676 4.484L-45.438 1.53H-40.958V0.48H-46.488L-46.908 5.534L-45.83 5.646C-45.312 5.142 -44.654 4.89 -43.884 4.89C-42.54 4.89 -41.756 5.702 -41.756 6.948C-41.756 8.18 -42.652 9.16 -44.01 9.16C-44.5 9.16 -44.934 9.076 -45.34 8.922C-45.746 8.768 -46.25 8.474 -46.88 8.054L-47.496 8.964C-46.81 9.426 -46.222 9.762 -45.704 9.944C-45.186 10.126 -44.584 10.224 -43.898 10.224C-41.868 10.224 -40.51 8.656 -40.51 6.892ZM-32.7552 2.02C-33.3292 0.899999 -34.3232 0.255999 -35.6532 0.255999C-36.9832 0.255999 -37.9772 0.899999 -38.5512 2.02C-38.9992 2.888 -39.2232 3.966 -39.2232 5.24C-39.2232 6.514 -38.9992 7.592 -38.5512 8.46C-37.9772 9.58 -36.9832 10.224 -35.6532 10.224C-34.3232 10.224 -33.3292 9.58 -32.7552 8.46C-32.3072 7.592 -32.0832 6.514 -32.0832 5.24C-32.0832 3.966 -32.3072 2.888 -32.7552 2.02ZM-37.4592 2.552C-37.0672 1.726 -36.4652 1.32 -35.6532 1.32C-34.8412 1.32 -34.2392 1.726 -33.8472 2.552C-33.5112 3.238 -33.3432 4.134 -33.3432 5.24C-33.3432 6.346 -33.5112 7.242 -33.8472 7.928C-34.2392 8.754 -34.8412 9.16 -35.6532 9.16C-36.4652 9.16 -37.0672 8.754 -37.4592 7.928C-37.7952 7.242 -37.9632 6.346 -37.9632 5.24C-37.9632 4.134 -37.7952 3.238 -37.4592 2.552ZM-21.3255 2.02C-21.8995 0.899999 -22.8935 0.255999 -24.2235 0.255999C-25.5535 0.255999 -26.5475 0.899999 -27.1215 2.02C-27.5695 2.888 -27.7935 3.966 -27.7935 5.24C-27.7935 6.514 -27.5695 7.592 -27.1215 8.46C-26.5475 9.58 -25.5535 10.224 -24.2235 10.224C-22.8935 10.224 -21.8995 9.58 -21.3255 8.46C-20.8775 7.592 -20.6535 6.514 -20.6535 5.24C-20.6535 3.966 -20.8775 2.888 -21.3255 2.02ZM-26.0295 2.552C-25.6375 1.726 -25.0355 1.32 -24.2235 1.32C-23.4115 1.32 -22.8095 1.726 -22.4175 2.552C-22.0815 3.238 -21.9135 4.134 -21.9135 5.24C-21.9135 6.346 -22.0815 7.242 -22.4175 7.928C-22.8095 8.754 -23.4115 9.16 -24.2235 9.16C-25.0355 9.16 -25.6375 8.754 -26.0295 7.928C-26.3655 7.242 -26.5335 6.346 -26.5335 5.24C-26.5335 4.134 -26.3655 3.238 -26.0295 2.552ZM-12.8763 2.02C-13.4503 0.899999 -14.4443 0.255999 -15.7743 0.255999C-17.1043 0.255999 -18.0983 0.899999 -18.6723 2.02C-19.1203 2.888 -19.3443 3.966 -19.3443 5.24C-19.3443 6.514 -19.1203 7.592 -18.6723 8.46C-18.0983 9.58 -17.1043 10.224 -15.7743 10.224C-14.4443 10.224 -13.4503 9.58 -12.8763 8.46C-12.4283 7.592 -12.2043 6.514 -12.2043 5.24C-12.2043 3.966 -12.4283 2.888 -12.8763 2.02ZM-17.5803 2.552C-17.1883 1.726 -16.5863 1.32 -15.7743 1.32C-14.9623 1.32 -14.3603 1.726 -13.9683 2.552C-13.6323 3.238 -13.4643 4.134 -13.4643 5.24C-13.4643 6.346 -13.6323 7.242 -13.9683 7.928C-14.3603 8.754 -14.9623 9.16 -15.7743 9.16C-16.5863 9.16 -17.1883 8.754 -17.5803 7.928C-17.9163 7.242 -18.0843 6.346 -18.0843 5.24C-18.0843 4.134 -17.9163 3.238 -17.5803 2.552ZM-4.42708 2.02C-5.00108 0.899999 -5.99508 0.255999 -7.32508 0.255999C-8.65508 0.255999 -9.64908 0.899999 -10.2231 2.02C-10.6711 2.888 -10.8951 3.966 -10.8951 5.24C-10.8951 6.514 -10.6711 7.592 -10.2231 8.46C-9.64908 9.58 -8.65508 10.224 -7.32508 10.224C-5.99508 10.224 -5.00108 9.58 -4.42708 8.46C-3.97908 7.592 -3.75508 6.514 -3.75508 5.24C-3.75508 3.966 -3.97908 2.888 -4.42708 2.02ZM-9.13108 2.552C-8.73908 1.726 -8.13708 1.32 -7.32508 1.32C-6.51308 1.32 -5.91108 1.726 -5.51908 2.552C-5.18308 3.238 -5.01508 4.134 -5.01508 5.24C-5.01508 6.346 -5.18308 7.242 -5.51908 7.928C-5.91108 8.754 -6.51308 9.16 -7.32508 9.16C-8.13708 9.16 -8.73908 8.754 -9.13108 7.928C-9.46708 7.242 -9.63508 6.346 -9.63508 5.24C-9.63508 4.134 -9.46708 3.238 -9.13108 2.552ZM4.73461 6.038C6.52661 6.038 7.80061 4.988 7.80061 3.294C7.80061 1.586 6.51261 0.48 4.73461 0.48H1.82261V5.1H0.506609V6.038H1.82261V7.326H0.506609V8.194H1.82261V10H3.05461V8.194H6.06461V7.326H3.05461V6.038H4.73461ZM3.05461 1.53H4.60861C5.82661 1.53 6.59661 2.188 6.59661 3.308C6.59661 4.428 5.82661 5.1 4.60861 5.1H3.05461V1.53Z" fill="black"/>
</svg>
